# xmcd
#
# Track frame offsets: 
#        150
#        27551
#        56125
#        82618
#        110604
#        131381
#        148678
#        168419
#        188856
#        221105
#
# Disc length: 3236 seconds
#
# Revision: 1
# Processed by: cddbd v1.5.2PL0 Copyright (c) Steve Scherf et al.
# Submitted via: ExactAudioCopy v1.0b1
#
DISCID=8e0ca20a
DTITLE=Nailah Porter - ConJazzNess
DYEAR=2011
DGENRE=Jazz
TTITLE0=Sacred
TTITLE1=Breathe
TTITLE2=Transcending
TTITLE3=Beautiful Anyway
TTITLE4=He Speaks
TTITLE5=Hands
TTITLE6=Uncle Coo' Jack
TTITLE7=Lillies and Birds
TTITLE8=Jesus Wept
TTITLE9=Be Still
EXTD=YEAR: 2011
EXTT0=
EXTT1=
EXTT2=
EXTT3=
EXTT4=
EXTT5=
EXTT6=
EXTT7=
EXTT8=
EXTT9=
PLAYORDER=
